<svg width="500" height="500" xmlns="http://www.w3.org/2000/svg" version="1.1">

 <g>
  <title>Layer 1</title>
  <g stroke="null" id="svg_1">
   <g stroke="null" id="svg_2">
    <path stroke="null" id="svg_3" d="m372.46366,279.07857c-14.88095,-9.26263 -34.16544,-30.21743 -27.02866,-75.46765c0,0 -26.42127,39.32821 -95.51138,39.02452c-69.09011,0.30369 -95.51138,-39.02452 -95.51138,-39.02452c6.98493,45.25022 -12.14771,66.20502 -27.02866,75.46765c-8.5034,5.31462 -15.64018,6.68124 -15.64018,6.68124c3.03693,61.95333 28.09158,66.05318 28.09158,66.05318c33.86174,7.13678 67.41979,41.75776 67.41979,41.75776c20.19557,9.87002 42.66883,9.26263 42.66883,9.26263s22.47326,0.75923 42.66883,-9.26263c0,0 33.55805,-34.62098 67.41979,-41.75776c0,0 25.05465,-4.09985 28.09158,-66.05318c0,0 -7.13678,-1.36662 -15.64018,-6.68124z" fill="#FABE5D"/>
    <path stroke="null" id="svg_4" d="m251.1384,405.56661c-0.60739,0 -1.06292,0 -1.21477,0c-0.75923,0 -23.2325,0.60739 -43.73176,-9.56632c-0.30369,-0.15185 -0.60739,-0.30369 -0.75923,-0.60739c-0.30369,-0.30369 -33.4062,-34.16544 -65.90133,-40.99852c-1.06292,-0.15185 -27.1805,-5.16278 -30.36928,-68.63457c0,-1.36662 0.91108,-2.58139 2.2777,-2.88508c0,0 6.83309,-1.51846 14.7291,-6.37755c15.48833,-9.56632 32.34328,-29.91374 25.81389,-72.73442c-0.15185,-1.21477 0.45554,-2.58139 1.67031,-3.03693c1.21477,-0.45554 2.58139,0 3.34062,1.06292c0,0.15185 6.68124,9.56632 21.25849,18.9808c13.51433,8.65524 36.74683,18.82895 71.21595,18.82895c0.45554,0 0.91108,0 1.21477,0c34.46913,0 57.70163,-10.17371 71.21595,-18.82895c14.7291,-9.41448 21.25849,-18.9808 21.25849,-18.9808c0.75923,-1.06292 2.12585,-1.51846 3.34062,-1.06292c1.21477,0.45554 1.974,1.67031 1.67031,3.03693c-6.52939,42.82068 10.32555,63.1681 25.81389,72.73442c7.89601,4.85908 14.57725,6.37755 14.7291,6.37755c1.36662,0.30369 2.2777,1.51846 2.2777,2.88508c-3.18877,63.47179 -29.30635,68.48272 -30.36928,68.63457c-32.49513,6.83309 -65.44579,40.54298 -65.74948,40.99852c-0.15185,0.30369 -0.45554,0.45554 -0.75923,0.60739c-18.37341,8.95894 -37.9616,9.56632 -42.97253,9.56632zm-1.21477,-5.61832c0.30369,0 21.86588,0.60739 41.15037,-8.65524c3.79616,-3.94801 35.6839,-35.22836 68.48272,-42.2133c0.30369,0 22.47326,-5.01093 25.81389,-61.19409c-2.88508,-0.91108 -8.1997,-2.73323 -14.12171,-6.52939c0,0 0,0 0,0c-12.90694,-8.04786 -32.95067,-27.33235 -29.4582,-69.09011c-11.38848,11.69217 -39.32821,32.95067 -90.95598,32.95067c-0.45554,0 -0.91108,0 -1.36662,0c-51.47592,0 -79.56751,-21.41034 -90.95598,-32.95067c3.49247,41.75776 -16.55126,61.04225 -29.4582,69.09011c-5.92201,3.64431 -11.23663,5.61832 -14.12171,6.52939c3.34062,56.18316 25.51019,61.19409 25.66204,61.19409c32.79882,6.98493 64.68656,38.26529 68.48272,42.2133c18.9808,9.26263 40.54298,8.65524 40.84668,8.65524z" fill="#3C2415"/>
   </g>
   <g stroke="null" id="svg_5">
    <path stroke="null" id="svg_6" d="m249.92363,15.6251c-133.01743,1.974 -115.5551,137.11729 -115.5551,137.11729c10.17371,93.08183 115.5551,89.74121 115.5551,89.74121s105.38139,3.34062 115.5551,-89.74121c0.15185,0 17.46233,-134.99144 -115.5551,-137.11729z" fill="#79CFDF"/>
    <path stroke="null" id="svg_7" d="m250.8347,245.36868c-0.60739,0 -0.91108,0 -1.06292,0c-0.91108,0 -107.96278,2.2777 -118.28833,-92.3226c-0.30369,-2.42954 -7.59232,-62.56071 27.93973,-103.71108c20.49926,-23.53619 50.86854,-35.83575 90.3486,-36.44313c0,0 0,0 0.15185,0c39.48006,0.60739 69.84934,12.90694 90.3486,36.44313c35.53205,41.15037 28.24343,101.28154 27.93973,103.71108c-9.71817,89.74121 -106.44432,92.3226 -117.37726,92.3226zm-0.91108,-5.61832c0.45554,0 26.42127,0.60739 53.14623,-9.87002c35.53205,-13.96987 55.57578,-40.08745 59.67563,-77.44166c0.15185,-0.60739 7.28863,-60.28301 -26.72496,-99.45938c-19.28449,-22.32142 -48.28715,-33.86174 -86.0969,-34.46913c-37.80975,0.60739 -66.81241,12.14771 -86.0969,34.46913c-34.01359,39.17637 -26.72496,98.852 -26.72496,99.45938c9.87002,89.58937 111.75894,87.46352 112.82186,87.31167z" fill="#3C2415"/>
   </g>
   <g stroke="null" id="svg_8">
    <path stroke="null" id="svg_9" d="m139.98684,351.81299c0,0 -25.05465,-4.09985 -28.09158,-66.05318c0,0 7.13678,-1.51846 15.64018,-6.68124c-2.88508,46.76869 12.4514,72.73442 12.4514,72.73442z" fill="#CB9783"/>
    <path stroke="null" id="svg_10" d="m139.98684,354.54623c-0.15185,0 -0.30369,0 -0.45554,0c-1.06292,-0.15185 -27.33235,-5.16278 -30.36928,-68.63457c0,-1.36662 0.91108,-2.58139 2.2777,-2.88508c0,0 6.68124,-1.51846 14.7291,-6.37755c0.91108,-0.60739 1.974,-0.60739 2.88508,0c0.91108,0.60739 1.36662,1.51846 1.36662,2.58139c-2.73323,45.25022 11.99586,70.91226 12.14771,71.21595c0.60739,0.91108 0.45554,2.12585 -0.15185,3.03693c-0.60739,0.60739 -1.51846,1.06292 -2.42954,1.06292zm-25.2065,-66.66056c2.12585,36.29129 12.14771,51.17223 18.9808,57.24609c-4.2517,-10.62925 -10.32555,-31.4322 -9.41448,-61.19409c-3.94801,2.12585 -7.44047,3.34062 -9.56632,3.94801z" fill="#3C2415"/>
   </g>
   <g stroke="null" id="svg_11">
    <path stroke="null" id="svg_12" d="m154.5641,203.61092c0,0 -42.2133,-17.0068 -108.72201,48.439c0,0 -8.95894,8.1997 -1.51846,9.71817c0,0 7.74417,0.30369 -2.88508,9.71817c0,0 -29.00266,22.32142 70.45672,14.27356c0,0 52.99439,-9.26263 42.66883,-82.14889z" fill="#79CFDF"/>
    <path stroke="null" id="svg_13" d="m74.84474,290.31521c-31.4322,0 -37.9616,-5.31462 -39.63191,-9.87002c-1.82216,-4.70724 1.974,-9.26263 4.55539,-11.23663c2.73323,-2.42954 3.79616,-3.94801 4.2517,-4.70724c0,0 -0.15185,0 -0.15185,0c-3.34062,-0.75923 -4.55539,-2.58139 -5.01093,-3.94801c-1.21477,-4.2517 3.64431,-9.11078 5.16278,-10.4774c66.96426,-65.90133 109.78494,-49.80561 111.60709,-49.04638c0.91108,0.30369 1.51846,1.21477 1.67031,2.12585c10.4774,74.70842 -44.33914,85.33767 -44.94653,85.33767c-15.33648,1.21477 -27.63604,1.82216 -37.50606,1.82216zm-30.06558,-31.28036c1.82216,0.15185 3.94801,1.06292 4.85908,3.34062c1.06292,3.03693 -0.91108,6.37755 -6.2257,11.23663c-1.21477,1.06292 -3.49247,3.34062 -2.88508,4.85908c0.60739,1.67031 7.13678,9.71817 71.3678,4.55539c1.82216,-0.30369 49.04638,-9.71817 40.39114,-77.28981c-7.89601,-1.974 -46.92053,-8.04786 -104.16662,48.28715c-1.67031,1.67031 -3.34062,3.79616 -3.64431,4.85908c-0.15185,0 0,0 0.30369,0.15185z" fill="#3C2415"/>
   </g>
   <g stroke="null" id="svg_14">
    <path stroke="null" id="svg_15" d="m139.98684,351.81299c0,0 -26.11758,36.29129 -14.12171,87.46352c0,0 2.2777,5.31462 -3.18877,8.5034c0,0 -36.13944,22.01773 -3.18877,20.65111c0,0 8.1997,-0.75923 4.85908,5.61832c0,0 -7.13678,11.23663 20.65111,1.21477c0,0 9.41448,-6.07386 13.51433,4.09985c0,0 -2.2777,18.06972 38.41714,-15.33648c0,0 7.89601,-3.79616 1.974,-16.39941c0,0 -6.52939,-30.06558 8.1997,-54.20916c0.15185,0.15185 -31.88774,-33.55805 -67.1161,-41.60591z" fill="#79CFDF"/>
    <path stroke="null" id="svg_16" d="m163.21934,487.10812c-1.67031,0 -2.88508,-0.45554 -3.94801,-0.91108c-2.73323,-1.51846 -3.49247,-4.40355 -3.34062,-6.2257c-0.91108,-1.82216 -1.974,-3.03693 -3.34062,-3.49247c-2.73323,-0.91108 -5.92201,1.06292 -5.92201,1.21477c-0.15185,0.15185 -0.30369,0.15185 -0.60739,0.30369c-13.96987,5.01093 -21.25849,5.61832 -24.14358,1.974c-1.82216,-2.2777 -1.06292,-5.46647 0.15185,-7.28863c0.45554,-0.75923 0.30369,-1.21477 0.30369,-1.21477c-0.30369,-0.15185 -1.67031,-0.30369 -2.58139,-0.15185c-6.98493,0.30369 -15.03279,-0.15185 -16.7031,-5.31462c-2.12585,-7.13678 11.99586,-16.7031 18.22157,-20.49926c3.34062,-1.82216 2.2777,-4.70724 2.12585,-5.01093c0,-0.15185 -0.15185,-0.30369 -0.15185,-0.45554c-12.14771,-51.77962 13.36248,-88.22275 14.57725,-89.74121c0.60739,-0.91108 1.82216,-1.36662 2.88508,-1.06292c35.6839,8.1997 67.41979,41.15037 68.78641,42.51699c0.91108,0.91108 1.06292,2.2777 0.30369,3.34062c-13.21064,21.56219 -8.5034,48.74269 -7.89601,51.77962c5.92201,12.90694 -1.21477,18.37341 -3.03693,19.43634c-20.80295,16.85495 -30.52112,20.80295 -35.6839,20.80295zm-1.82216,-7.28863c0,0 -0.15185,1.21477 0.60739,1.51846c0.60739,0.30369 6.68124,2.42954 33.25436,-19.43634c0.15185,-0.15185 0.30369,-0.30369 0.60739,-0.30369c0.45554,-0.30369 5.16278,-3.18877 0.75923,-12.7551c-0.15185,-0.15185 -0.15185,-0.45554 -0.15185,-0.60739c-0.30369,-1.21477 -6.2257,-29.91374 7.44047,-54.36101c-6.52939,-6.37755 -33.4062,-31.58405 -62.56071,-39.02452c-4.55539,7.28863 -22.77696,40.08745 -12.60325,83.51551c1.06292,2.73323 1.36662,8.5034 -4.40355,11.69217c-9.26263,5.61832 -16.09572,12.14771 -15.64018,14.12171l0,0c0,0 1.36662,1.82216 10.93294,1.36662c0.75923,-0.15185 5.61832,-0.30369 7.59232,2.73323c0.91108,1.21477 1.51846,3.49247 -0.30369,6.83309c-0.30369,0.60739 -0.45554,1.06292 -0.45554,1.36662c0,0 0.30369,0.15185 1.36662,0.15185c1.974,0 6.52939,-0.45554 16.09572,-3.94801c1.21477,-0.75923 5.77016,-3.03693 10.32555,-1.51846c3.18877,1.06292 5.46647,3.34062 6.98493,7.13678c0.15185,0.60739 0.30369,1.06292 0.15185,1.51846l0,0z" fill="#3C2415"/>
   </g>
   <path stroke="null" id="svg_17" d="m248.10147,273.30841c-61.49779,0 -95.51138,-25.35835 -96.87799,-26.57312c-1.21477,-0.91108 -1.51846,-2.73323 -0.45554,-3.94801c0.91108,-1.21477 2.73323,-1.51846 3.94801,-0.45554c0.30369,0.30369 34.77282,25.81389 95.35953,25.35835c0,0 0,0 0,0c1.51846,0 2.73323,1.21477 2.73323,2.73323c0,1.51846 -1.21477,2.73323 -2.73323,2.73323c-0.75923,0 -1.36662,0.15185 -1.974,0.15185z" fill="#3C2415"/>
   <path stroke="null" id="svg_18" d="m247.49408,346.95391c-30.67297,0 -66.81241,-8.65524 -67.26795,-8.80709c-0.60739,-0.15185 -1.21477,-0.45554 -1.51846,-1.06292c-18.52526,-24.59911 -34.92467,-72.73442 -35.6839,-74.70842c-0.45554,-1.51846 0.30369,-3.03693 1.67031,-3.49247c1.51846,-0.45554 3.03693,0.30369 3.49247,1.67031c0.15185,0.45554 16.55126,48.1353 34.31728,72.43073c6.07386,1.36662 39.48006,8.80709 67.41979,8.35155c0,0 0,0 0,0c1.51846,0 2.73323,1.21477 2.73323,2.73323c0,1.51846 -1.21477,2.73323 -2.73323,2.88508c-0.75923,0 -1.51846,0 -2.42954,0z" fill="#3C2415"/>
   <path stroke="null" id="svg_19" d="m165.0415,363.80886c-0.30369,0 -0.75923,0 -1.06292,-0.15185c-1.36662,-0.60739 -2.12585,-2.12585 -1.51846,-3.64431c0.30369,-0.75923 7.59232,-18.82895 16.7031,-26.72496c1.21477,-1.06292 2.88508,-0.91108 3.94801,0.30369c1.06292,1.21477 0.91108,2.88508 -0.30369,3.94801c-8.04786,6.83309 -15.03279,24.29542 -15.03279,24.44727c-0.60739,1.06292 -1.67031,1.82216 -2.73323,1.82216z" fill="#3C2415"/>
   <path stroke="null" id="svg_20" d="m249.92363,233.37281c-1.21477,0 -2.2777,-0.75923 -2.58139,-1.82216c-2.2777,-6.2257 -12.90694,-8.1997 -20.65111,-9.71817c-1.82216,-0.30369 -3.49247,-0.60739 -4.85908,-0.91108c-4.55539,-1.06292 -8.95894,-1.974 -13.51433,-2.88508c-9.87002,-1.974 -20.19557,-4.09985 -29.91374,-7.44047c-11.08479,-3.79616 -17.15864,-10.32555 -17.76603,-19.43634c-0.15185,-1.51846 1.06292,-2.88508 2.58139,-3.03693c1.51846,0 2.88508,1.06292 2.88508,2.58139c0.45554,6.68124 5.01093,11.54033 13.96987,14.42541c9.56632,3.18877 19.58818,5.31462 29.30635,7.28863c4.55539,0.91108 9.11078,1.82216 13.66617,2.88508c1.36662,0.30369 2.88508,0.60739 4.70724,0.91108c9.11078,1.67031 21.56219,3.94801 24.90281,13.21064c0.45554,1.51846 -0.30369,3.03693 -1.67031,3.49247c-0.45554,0.30369 -0.75923,0.45554 -1.06292,0.45554z" fill="#3C2415"/>
   <ellipse stroke="null" id="svg_21" ry="3.9" rx="2.6" cy="240.52073" cx="474.79963" fill="#3C2415" transform="matrix(1.21462 -0.91123 0.91123 1.21462 -564.491 348.873)"/>
   <g stroke="null" id="svg_22">
    <path stroke="null" id="svg_23" d="m186.60368,181.74504c-3.34062,0.60739 -7.44047,0.30369 -12.29956,-1.51846c0,0 -18.52526,-2.88508 -18.37341,-28.39527c0,0 0.30369,-30.67297 14.27356,-41.75776c0,0 0,0 0,0c2.12585,-1.67031 4.55539,-2.88508 7.44047,-3.49247c0,0 20.04372,-0.60739 22.47326,44.49099c0,-0.15185 2.58139,27.4842 -13.51433,30.67297z" fill="#FFFFFF"/>
    <path stroke="null" id="svg_24" d="m183.41491,184.78197c-3.03693,0 -6.37755,-0.60739 -10.02186,-1.974c-2.73323,-0.60739 -20.65111,-5.46647 -20.49926,-31.12851c0,-1.36662 0.60739,-32.19143 15.33648,-43.88361c2.58139,-2.12585 5.61832,-3.49247 8.65524,-4.09985c0.15185,0 0.15185,0 0.60739,0c1.82216,0 22.62511,1.06292 25.2065,47.07238c0.15185,1.06292 2.73323,30.06558 -15.64018,33.55805c-1.06292,0.30369 -2.2777,0.45554 -3.64431,0.45554zm-5.61832,-75.46765c-2.12585,0.45554 -4.09985,1.36662 -5.92201,2.88508c-12.7551,10.17371 -13.21064,39.32821 -13.21064,39.63191c-0.15185,22.9288 15.94387,25.66204 16.09572,25.66204c0.15185,0 0.30369,0 0.60739,0.15185c4.2517,1.51846 7.89601,1.974 10.78109,1.36662c0,0 0,0 0,0c13.51433,-2.58139 11.23663,-27.4842 11.23663,-27.78789c-2.2777,-38.87267 -17.61418,-41.75776 -19.58818,-41.9096z" fill="#3C2415"/>
   </g>
   <path stroke="null" id="svg_25" d="m186.60368,181.74504c-19.74003,-3.34062 -23.2325,-24.29542 -23.2325,-24.29542c-4.55539,-21.71403 6.2257,-46.00945 6.68124,-47.37607c0,0 0,0 0,0c2.12585,-1.67031 4.55539,-2.88508 7.44047,-3.49247c0,0 20.04372,-0.60739 22.47326,44.49099c0.15185,-0.15185 2.73323,27.4842 -13.36248,30.67297z" fill="#3C2415"/>
   <ellipse stroke="null" id="svg_26" ry="19.13264" rx="8.95894" cy="150.46469" cx="184.17414" fill="#BE1E2D"/>
   <circle stroke="null" id="svg_27" r="8.35155" cy="125.56188" cx="180.52983" fill="#FFFFFF"/>
   <path stroke="null" id="svg_28" d="m206.64741,119.94356c-1.21477,0 -2.2777,-0.75923 -2.73323,-2.12585c-5.61832,-20.65111 -32.19143,-26.11758 -32.34328,-26.11758c-1.51846,-0.30369 -2.42954,-1.82216 -2.12585,-3.18877c0.30369,-1.51846 1.82216,-2.58139 3.18877,-2.12585c1.21477,0.30369 30.21743,6.07386 36.74683,30.21743c0.45554,1.51846 -0.45554,3.03693 -1.974,3.34062c-0.30369,0 -0.45554,0 -0.75923,0z" fill="#3C2415"/>
   <g stroke="null" id="svg_29">
    <path stroke="null" id="svg_30" d="m360.01225,351.81299c0,0 25.05465,-4.09985 28.09158,-66.05318c0,0 -7.13678,-1.51846 -15.64018,-6.68124c2.88508,46.76869 -12.4514,72.73442 -12.4514,72.73442z" fill="#CB9783"/>
    <path stroke="null" id="svg_31" d="m360.01225,354.54623c-0.91108,0 -1.82216,-0.45554 -2.2777,-1.21477c-0.60739,-0.91108 -0.60739,-2.12585 -0.15185,-3.03693c0.15185,-0.30369 14.88095,-25.96573 12.14771,-71.21595c0,-1.06292 0.45554,-1.974 1.36662,-2.58139c0.91108,-0.45554 1.974,-0.45554 2.88508,0c7.89601,4.85908 14.57725,6.37755 14.7291,6.37755c1.36662,0.30369 2.2777,1.51846 2.2777,2.88508c-3.18877,63.47179 -29.30635,68.48272 -30.36928,68.63457c-0.30369,0.15185 -0.45554,0.15185 -0.60739,0.15185zm15.48833,-70.60857c1.06292,29.76189 -5.16278,50.56485 -9.41448,61.19409c6.83309,-6.07386 16.85495,-20.9548 18.9808,-57.24609c-1.974,-0.60739 -5.46647,-1.82216 -9.56632,-3.94801z" fill="#3C2415"/>
   </g>
   <g stroke="null" id="svg_32">
    <path stroke="null" id="svg_33" d="m345.435,203.61092c0,0 42.2133,-17.0068 108.72201,48.439c0,0 8.95894,8.1997 1.51846,9.71817c0,0 -7.74417,0.30369 2.88508,9.71817c0,0 29.00266,22.32142 -70.45672,14.27356c0,0 -52.99439,-9.26263 -42.66883,-82.14889z" fill="#79CFDF"/>
    <path stroke="null" id="svg_34" d="m425.15435,290.31521c-9.71817,0 -22.01773,-0.45554 -37.20236,-1.67031c-0.75923,-0.15185 -55.72762,-10.78109 -45.25022,-85.48951c0.15185,-0.91108 0.75923,-1.82216 1.67031,-2.12585c1.82216,-0.75923 44.64284,-16.85495 111.60709,49.04638c1.36662,1.36662 6.2257,6.2257 5.16278,10.4774c-0.45554,1.51846 -1.51846,3.34062 -5.01093,3.94801c0,0 -0.15185,0 -0.15185,0c0.45554,0.75923 1.51846,2.2777 4.40355,4.85908c2.42954,1.82216 6.2257,6.37755 4.40355,11.08479c-1.67031,4.55539 -8.1997,9.87002 -39.63191,9.87002zm-77.28981,-84.57844c-3.64431,28.09158 2.2777,50.26115 16.85495,64.38287c11.23663,10.78109 23.68804,13.05879 23.68804,13.05879c63.92733,5.01093 70.45672,-2.88508 71.06411,-4.55539c0.60739,-1.51846 -1.82216,-4.09985 -2.73323,-4.70724c-5.61832,-5.01093 -7.44047,-8.5034 -6.37755,-11.38848c0.75923,-2.2777 3.03693,-3.18877 4.85908,-3.34062c0.30369,0 0.45554,-0.15185 0.45554,-0.15185c-0.30369,-1.06292 -1.82216,-3.18877 -3.49247,-4.70724c-33.7099,-33.10251 -60.73855,-44.33914 -77.44166,-47.98346c-13.96987,-3.34062 -23.38434,-1.51846 -26.87681,-0.60739z" fill="#3C2415"/>
   </g>
   <g stroke="null" id="svg_35">
    <path stroke="null" id="svg_36" d="m360.01225,351.81299c0,0 26.11758,36.29129 14.12171,87.46352c0,0 -2.2777,5.31462 3.18877,8.5034c0,0 36.13944,22.01773 3.18877,20.65111c0,0 -8.1997,-0.75923 -4.85908,5.61832c0,0 7.13678,11.23663 -20.65111,1.21477c0,0 -9.41448,-6.07386 -13.51433,4.09985c0,0 2.2777,18.06972 -38.41714,-15.33648c0,0 -7.89601,-3.79616 -1.974,-16.39941c0,0 6.52939,-30.06558 -8.1997,-54.20916c-0.30369,0.15185 31.73589,-33.55805 67.1161,-41.60591z" fill="#79CFDF"/>
    <path stroke="null" id="svg_37" d="m336.77976,487.10812c-5.31462,0 -15.03279,-3.94801 -35.53205,-20.80295c-1.82216,-1.21477 -8.95894,-6.68124 -3.03693,-19.43634c0.60739,-3.03693 5.31462,-30.21743 -7.89601,-51.77962c-0.60739,-1.06292 -0.45554,-2.42954 0.30369,-3.34062c1.36662,-1.36662 33.10251,-34.46913 68.78641,-42.51699c1.06292,-0.30369 2.2777,0.15185 2.88508,1.06292c1.06292,1.51846 26.72496,37.9616 14.57725,89.74121c0,0.15185 -0.15185,0.30369 -0.15185,0.45554c-0.30369,0.75923 -1.06292,3.18877 1.974,4.85908c6.2257,3.79616 20.49926,13.36248 18.22157,20.49926c-1.51846,5.31462 -9.71817,5.61832 -16.55126,5.31462c-1.06292,-0.15185 -2.42954,0.15185 -2.88508,0.30369c0,0 0.15185,0.45554 0.45554,1.21477c1.06292,1.67031 1.82216,4.85908 0,7.13678c-2.88508,3.64431 -10.17371,3.03693 -24.14358,-1.974c-0.15185,0 -0.45554,-0.15185 -0.60739,-0.30369c-0.91108,-0.60739 -3.79616,-1.82216 -5.92201,-1.06292c-1.36662,0.45554 -2.42954,1.51846 -3.18877,3.49247c0,1.974 -0.75923,4.70724 -3.34062,6.2257c-1.06292,0.60739 -2.2777,0.91108 -3.94801,0.91108zm-40.69483,-93.08183c13.81802,24.44727 7.74417,52.99439 7.44047,54.36101c0,0.15185 -0.15185,0.45554 -0.15185,0.60739c-4.70724,9.87002 0.75923,12.60325 0.75923,12.7551c0.15185,0.15185 0.45554,0.15185 0.60739,0.30369c26.72496,22.01773 32.64697,19.74003 33.25436,19.43634c0.60739,-0.30369 0.60739,-1.51846 0.60739,-1.51846c0,-0.45554 0,-0.91108 0.15185,-1.36662c1.51846,-3.79616 3.79616,-6.2257 6.98493,-7.13678c4.55539,-1.51846 9.11078,0.91108 10.32555,1.51846c15.03279,5.31462 17.61418,3.64431 17.76603,3.49247c-0.15185,0.15185 -0.30369,-0.45554 -0.60739,-0.91108c-1.82216,-3.49247 -1.21477,-5.77016 -0.30369,-7.13678c2.12585,-3.18877 6.83309,-2.88508 7.74417,-2.73323c9.56632,0.45554 10.78109,-1.51846 10.78109,-1.51846c0.30369,-1.82216 -6.37755,-8.5034 -15.79202,-14.12171c-5.77016,-3.18877 -5.46647,-8.95894 -4.40355,-11.69217c10.17371,-43.42807 -8.04786,-76.07504 -12.60325,-83.51551c-29.15451,7.59232 -56.03132,32.79882 -62.56071,39.17637zm4.85908,53.60177l0,0l0,0z" fill="#3C2415"/>
   </g>
   <path stroke="null" id="svg_38" d="m251.74578,273.30841c-0.60739,0 -1.21477,0 -1.82216,0c-1.51846,0 -2.73323,-1.21477 -2.73323,-2.73323c0,-1.51846 1.21477,-2.73323 2.73323,-2.73323c0,0 0,0 0,0c60.73855,0.45554 94.90399,-25.05465 95.35953,-25.35835c1.21477,-0.91108 3.03693,-0.75923 3.94801,0.45554c0.91108,1.21477 0.75923,3.03693 -0.45554,3.94801c-1.51846,0.91108 -35.53205,26.42127 -97.02984,26.42127z" fill="#3C2415"/>
   <path stroke="null" id="svg_39" d="m252.50501,346.95391c-0.91108,0 -1.67031,0 -2.58139,0c-1.51846,0 -2.73323,-1.21477 -2.73323,-2.88508c0,-1.51846 1.21477,-2.88508 2.88508,-2.73323c27.78789,0.45554 61.34594,-6.98493 67.41979,-8.35155c17.76603,-24.14358 34.16544,-71.97519 34.31728,-72.43073c0.45554,-1.51846 2.12585,-2.2777 3.49247,-1.67031c1.51846,0.45554 2.2777,2.12585 1.67031,3.49247c-0.75923,1.974 -17.15864,50.10931 -35.6839,74.70842c-0.45554,0.45554 -0.91108,0.91108 -1.51846,1.06292c-0.45554,0 -36.59498,8.80709 -67.26795,8.80709z" fill="#3C2415"/>
   <path stroke="null" id="svg_40" d="m334.9576,363.80886c-1.06292,0 -2.12585,-0.60739 -2.58139,-1.82216c0,-0.15185 -6.98493,-17.61418 -15.03279,-24.44727c-1.21477,-1.06292 -1.36662,-2.73323 -0.30369,-3.94801c1.06292,-1.21477 2.73323,-1.36662 3.94801,-0.30369c9.11078,7.74417 16.39941,25.96573 16.7031,26.72496c0.60739,1.36662 -0.15185,3.03693 -1.51846,3.64431c-0.60739,0 -0.91108,0.15185 -1.21477,0.15185z" fill="#3C2415"/>
   <g stroke="null" id="svg_41">
    <path stroke="null" id="svg_42" d="m249.92363,402.83338c-4.55539,0.45554 -18.37341,-1.67031 -18.37341,-1.67031c5.77016,18.82895 18.37341,17.61418 18.37341,17.61418s12.60325,1.21477 18.37341,-17.61418c0,0 -13.66617,2.12585 -18.37341,1.67031z" fill="#79CFDF"/>
    <path stroke="null" id="svg_43" d="m249.46809,421.66233c-3.03693,0 -14.88095,-1.21477 -20.49926,-19.58818c-0.30369,-0.91108 -0.15185,-1.974 0.60739,-2.58139s1.51846,-1.06292 2.58139,-0.91108c3.79616,0.60739 14.12171,1.974 17.61418,1.51846c0.15185,0 0.45554,0 0.60739,0c3.49247,0.30369 13.96987,-1.06292 17.61418,-1.51846c0.91108,-0.15185 1.974,0.15185 2.58139,0.91108c0.60739,0.75923 0.75923,1.67031 0.60739,2.58139c-6.07386,19.43634 -18.9808,19.74003 -20.9548,19.58818c-0.30369,0 -0.45554,0 -0.75923,0zm0.45554,-5.61832c0.15185,0 0.15185,0 0.30369,0c0.30369,0 8.65524,0.45554 13.81802,-11.54033c-4.40355,0.60739 -10.93294,1.21477 -14.12171,1.06292c-3.34062,0.30369 -9.71817,-0.45554 -14.12171,-1.06292c5.31462,11.99586 13.51433,11.54033 13.96987,11.54033c0,0 0.15185,0 0.15185,0z" fill="#3C2415"/>
   </g>
   <path stroke="null" id="svg_44" d="m249.92363,233.37281c-0.30369,0 -0.60739,0 -0.91108,-0.15185c-1.51846,-0.45554 -2.12585,-2.12585 -1.67031,-3.49247c3.34062,-9.26263 15.79202,-11.54033 24.90281,-13.21064c1.67031,-0.30369 3.34062,-0.60739 4.70724,-0.91108c4.55539,-1.06292 9.11078,-1.974 13.66617,-2.88508c9.71817,-1.974 19.74003,-4.09985 29.30635,-7.28863c8.95894,-3.03693 13.51433,-7.74417 13.96987,-14.42541c0.15185,-1.51846 1.51846,-2.73323 2.88508,-2.58139c1.51846,0.15185 2.73323,1.36662 2.58139,3.03693c-0.60739,9.11078 -6.52939,15.64018 -17.76603,19.43634c-9.87002,3.34062 -20.04372,5.46647 -29.91374,7.44047c-4.55539,0.91108 -9.11078,1.82216 -13.51433,2.88508c-1.36662,0.30369 -3.03693,0.60739 -4.85908,0.91108c-7.74417,1.36662 -18.37341,3.34062 -20.65111,9.71817c-0.45554,0.75923 -1.51846,1.51846 -2.73323,1.51846z" fill="#3C2415"/>
   <ellipse stroke="null" id="svg_45" ry="2.6" rx="3.9" cy="343.02837" cx="604.8725" fill="#3C2415" transform="matrix(0.91123 -1.21462 1.21462 0.91123 -699.389 630.437)"/>
   <g stroke="null" id="svg_46">
    <path stroke="null" id="svg_47" d="m313.39541,181.74504c3.34062,0.60739 7.44047,0.30369 12.29956,-1.51846c0,0 18.52526,-2.88508 18.37341,-28.39527c0,0 -0.30369,-30.67297 -14.27356,-41.75776c0,0 0,0 0,0c-2.12585,-1.67031 -4.55539,-2.88508 -7.44047,-3.49247c0,0 -20.04372,-0.60739 -22.47326,44.49099c0,-0.15185 -2.73323,27.4842 13.51433,30.67297z" fill="#FFFFFF"/>
    <path stroke="null" id="svg_48" d="m316.43234,184.78197c-1.21477,0 -2.58139,-0.15185 -3.64431,-0.30369c-18.37341,-3.49247 -15.79202,-32.49513 -15.64018,-33.7099c2.58139,-47.07238 24.44727,-47.07238 25.35835,-46.92053c0.15185,0 0.30369,0 0.45554,0c3.03693,0.60739 6.07386,1.974 8.65524,4.09985c14.7291,11.84402 15.33648,42.51699 15.33648,43.88361c0.15185,25.66204 -17.76603,30.52112 -20.49926,31.12851c-3.64431,1.21477 -6.98493,1.82216 -10.02186,1.82216zm5.77016,-75.46765c-1.82216,0.15185 -17.31049,2.88508 -19.43634,41.9096c0,0.30369 -2.2777,25.2065 11.23663,27.78789c0,0 0,0 0,0c3.03693,0.60739 6.68124,0.15185 10.78109,-1.36662c0.15185,0 0.30369,-0.15185 0.60739,-0.15185c0.60739,-0.15185 16.24756,-2.88508 16.09572,-25.66204c0,-0.30369 -0.45554,-29.4582 -13.21064,-39.48006c-1.974,-1.67031 -3.94801,-2.58139 -6.07386,-3.03693z" fill="#3C2415"/>
   </g>
   <path stroke="null" id="svg_49" d="m313.39541,181.74504c19.74003,-3.34062 23.2325,-24.29542 23.2325,-24.29542c4.55539,-21.71403 -6.2257,-46.00945 -6.68124,-47.37607c0,0 0,0 0,0c-2.12585,-1.67031 -4.55539,-2.88508 -7.44047,-3.49247c0,0 -20.04372,-0.60739 -22.47326,44.49099c-0.15185,-0.15185 -2.88508,27.4842 13.36248,30.67297z" fill="#3C2415"/>
   <ellipse stroke="null" id="svg_50" ry="19.13264" rx="8.95894" cy="150.46469" cx="315.67311" fill="#BE1E2D"/>
   <circle stroke="null" id="svg_51" r="8.35155" cy="125.56188" cx="319.46927" fill="#FFFFFF"/>
   <path stroke="null" id="svg_52" d="m293.35169,119.94356c-0.30369,0 -0.45554,0 -0.75923,-0.15185c-1.51846,-0.45554 -2.42954,-1.974 -1.974,-3.34062c6.52939,-23.99173 35.53205,-29.91374 36.74683,-30.21743c1.51846,-0.30369 2.88508,0.75923 3.18877,2.12585c0.30369,1.51846 -0.75923,3.03693 -2.12585,3.18877c-0.30369,0 -26.87681,5.46647 -32.34328,26.11758c-0.45554,1.51846 -1.51846,2.2777 -2.73323,2.2777z" fill="#3C2415"/>
  </g>
 </g>
</svg>