<svg width="500" height="500" xmlns="http://www.w3.org/2000/svg" version="1.1">

 <g>
  <title>Layer 1</title>
  <g stroke="null" id="svg_1">
   <g stroke="null" id="svg_2">
    <g stroke="null" id="svg_3">
     <path stroke="null" id="svg_4" d="m186.83644,77.43767c0,0 -54.71096,9.87387 -87.73178,83.84698c0,0 -15.70108,-20.71894 -31.24028,-50.98803c-8.41707,-16.34854 -16.83414,-35.44882 -22.82321,-55.35843c-2.428,-8.09334 3.8848,-16.34854 12.46374,-16.02481c13.43494,0.64747 33.50642,2.26613 55.19656,6.96027c25.25121,5.50347 52.76856,15.05361 74.13497,31.56402z" fill="#F8AFB6"/>
     <path stroke="null" id="svg_5" d="m99.10465,164.19825c-0.9712,0 -1.78053,-0.4856 -2.428,-1.13307c-0.16187,-0.16187 -16.02481,-21.20455 -31.56402,-51.31176c-10.03574,-19.42401 -17.80534,-38.36242 -22.98508,-56.0059c-1.4568,-4.856 -0.4856,-9.87387 2.58987,-13.75867c3.07547,-3.8848 7.7696,-5.98907 12.78747,-5.98907c13.27307,0.64747 33.83015,2.26613 55.68216,7.12214c31.07842,6.63654 56.4915,17.48161 75.42991,32.04962c0.9712,0.64747 1.29493,1.9424 1.13307,3.07547c-0.32373,1.13307 -1.13307,1.9424 -2.428,2.26613c-0.4856,0.16187 -53.5779,10.52134 -85.62751,82.06645c-0.4856,0.9712 -1.29493,1.61867 -2.428,1.78053c0,-0.16187 0,-0.16187 -0.16187,-0.16187zm-42.08536,-122.37127c-2.9136,0 -5.66534,1.29493 -7.44587,3.56107c-1.9424,2.428 -2.428,5.50347 -1.61867,8.57894c5.17974,17.31974 12.62561,35.77255 22.49948,54.87283c11.33067,22.01388 22.82321,39.00989 28.00295,46.45576c27.03175,-56.9771 66.36537,-74.45871 81.58085,-79.15284c-17.64348,-12.30187 -40.46669,-21.36641 -67.98404,-27.35548c-21.52828,-4.69414 -41.59976,-6.3128 -54.71096,-6.96027c-0.16187,0 -0.32373,0 -0.32373,0z" fill="#3C2415"/>
    </g>
   </g>
   <g stroke="null" id="svg_6">
    <g stroke="null" id="svg_7">
     <path stroke="null" id="svg_8" d="m313.25437,77.43767c0,0 54.71096,9.87387 87.73178,83.84698c0,0 15.70108,-20.71894 31.24028,-50.98803c8.41707,-16.34854 16.83414,-35.44882 22.82321,-55.35843c2.428,-8.09334 -3.8848,-16.34854 -12.46374,-16.02481c-13.43494,0.64747 -33.50642,2.26613 -55.19656,6.96027c-25.25121,5.50347 -52.76856,15.05361 -74.13497,31.56402z" fill="#F8AFB6"/>
     <path stroke="null" id="svg_9" d="m400.98615,164.19825c-0.16187,0 -0.16187,0 -0.32373,0c-0.9712,-0.16187 -1.9424,-0.80933 -2.428,-1.78053c-16.67228,-37.39122 -39.00989,-57.78643 -54.87283,-68.1459c-17.15788,-11.33067 -30.59282,-13.92054 -30.59282,-13.92054c-1.13307,-0.16187 -2.10427,-1.13307 -2.428,-2.26613c-0.32373,-1.13307 0.16187,-2.26613 1.13307,-3.07547c18.93841,-14.56801 44.35149,-25.41308 75.42991,-32.04962c21.85201,-4.69414 42.40909,-6.47467 55.68216,-7.12214c5.01787,-0.16187 9.71201,1.9424 12.78747,5.98907c3.07547,4.04667 4.04667,9.06454 2.58987,13.92054c-5.17974,17.64348 -12.94934,36.42002 -22.98508,55.84403c-15.53921,30.10722 -31.40215,51.1499 -31.56402,51.31176c-0.64747,0.80933 -1.61867,1.29493 -2.428,1.29493zm-81.09524,-88.05552c15.21548,4.856 54.5491,22.33761 81.58085,79.15284c5.17974,-7.44587 16.67228,-24.44188 28.00295,-46.45576c9.87387,-19.10028 17.48161,-37.55309 22.49948,-54.87283c0.9712,-2.9136 0.32373,-6.15094 -1.61867,-8.57894c-1.9424,-2.428 -4.856,-3.72294 -7.7696,-3.56107c-13.11121,0.64747 -33.18269,2.26613 -54.71096,6.96027c-27.51735,5.98907 -50.34056,15.21548 -67.98404,27.35548z" fill="#3C2415"/>
    </g>
   </g>
   <g stroke="null" id="svg_10">
    <path stroke="null" id="svg_11" d="m423.6475,242.21803c0,0 -15.86294,-180.31957 -173.52116,-180.31957c-157.82009,0 -173.52116,180.31957 -173.52116,180.31957c-23.95628,191.16464 173.52116,169.47449 173.52116,169.47449s197.31558,21.69015 173.52116,-169.47449z" fill="#F8AFB6"/>
    <path stroke="null" id="svg_12" d="m268.41728,415.41545c-9.87387,0 -16.67228,-0.64747 -18.45281,-0.80933c-6.96027,0.64747 -92.26405,8.2552 -142.92835,-43.05656c-29.29788,-29.78348 -40.62856,-73.48751 -33.66829,-129.81714c0.16187,-1.78053 17.80534,-182.90943 176.59663,-182.90943c157.65822,0 176.11103,178.7009 176.59663,182.90943c6.96027,56.32963 -4.3704,100.03366 -33.66829,129.81714c-37.87682,38.52429 -95.01579,43.86589 -124.47554,43.86589zm-18.45281,-6.63654c0.16187,0 0.16187,0 0.32373,0c0.80933,0.16187 88.86485,9.06454 138.39608,-41.27602c28.00295,-28.48855 38.84802,-70.41204 32.04962,-124.96114c0,0 0,0 0,-0.16187c-0.16187,-1.78053 -17.48161,-177.56783 -170.60756,-177.56783c-153.28782,0 -170.44569,175.7873 -170.60756,177.56783c-6.7984,54.5491 3.8848,96.63445 31.88775,124.96114c49.53123,50.34056 137.42488,41.43789 138.39608,41.27602c0,0.16187 0.16187,0.16187 0.16187,0.16187z" fill="#3C2415"/>
   </g>
   <g stroke="null" id="svg_13">
    <path stroke="null" id="svg_14" d="m82.27051,210.16841c0.32373,-1.29493 -84.49445,58.4339 -65.87977,89.99792c0,0 9.06454,24.44188 59.56697,-3.07547c0,0 -6.47467,-35.77255 6.3128,-86.92245z" fill="#F8AFB6"/>
    <path stroke="null" id="svg_15" d="m35.97662,313.11566c-4.04667,0 -7.7696,-0.64747 -11.00694,-1.78053c-7.7696,-2.9136 -10.68321,-8.41707 -11.33067,-9.87387c-8.09334,-13.92054 0,-33.50642 24.11815,-58.11017c10.19761,-10.52134 21.20455,-19.58588 28.48855,-25.41308c15.05361,-11.81627 15.70108,-11.33067 17.48161,-10.35947c1.13307,0.64747 1.78053,1.9424 1.4568,3.3992l0,0c-12.30187,49.85496 -6.3128,85.30378 -6.3128,85.62751c0.16187,1.29493 -0.32373,2.428 -1.4568,3.07547c-16.51041,8.90267 -30.43095,13.43494 -41.43789,13.43494zm41.59976,-96.31072c-14.72987,10.68321 -52.76856,41.27602 -59.8907,65.87977c-1.78053,6.3128 -1.4568,11.49254 1.13307,15.86294c0.16187,0.16187 0.16187,0.32373 0.16187,0.4856c0,0.16187 1.78053,4.53227 8.09334,6.63654c7.12214,2.58987 20.71894,2.75173 45.48456,-10.52134c-0.9712,-7.7696 -3.8848,-37.39122 5.01787,-78.34351z" fill="#3C2415"/>
   </g>
   <g stroke="null" id="svg_16">
    <path stroke="null" id="svg_17" d="m91.98252,346.78395c0,0 40.95229,117.02966 85.46565,114.27793c0,0 25.41308,3.8848 42.73282,-49.04563c0,0.16187 -91.45472,0.80933 -128.19847,-65.2323z" fill="#F8AFB6"/>
    <path stroke="null" id="svg_18" d="m178.7431,464.13735c-0.64747,0 -0.9712,0 -1.29493,0c-45.97016,2.26613 -86.43685,-111.36433 -88.21738,-116.22033c-0.4856,-1.4568 0.16187,-3.07547 1.61867,-3.72294c1.4568,-0.64747 3.07547,-0.16187 3.72294,1.29493c35.12509,63.12804 122.695,63.7755 125.44674,63.7755c0,0 0,0 0.16187,0c0.9712,0 1.78053,0.4856 2.428,1.29493c0.4856,0.80933 0.64747,1.78053 0.4856,2.58987c-15.70108,47.42696 -38.03869,50.98803 -44.35149,50.98803zm-1.29493,-5.98907c0.16187,0 0.32373,0 0.4856,0c0.16187,0 22.01388,2.428 38.20055,-43.21842c-16.18668,-0.80933 -75.91551,-6.3128 -112.4974,-46.94136c4.3704,10.35947 10.19761,22.98508 17.15788,35.61069c20.07148,36.74375 39.65736,55.5203 56.65336,54.5491c-0.16187,0 0,0 0,0z" fill="#3C2415"/>
   </g>
   <path stroke="null" id="svg_19" d="m112.70146,45.87365c-7.93147,29.78348 -28.32668,51.31176 -44.83709,64.42297c-8.41707,-16.34854 -16.83414,-35.44882 -22.82321,-55.35843c-2.428,-8.09334 3.8848,-16.34854 12.46374,-16.02481c13.43494,0.64747 33.50642,2.26613 55.19656,6.96027z" fill="#3C2415"/>
   <ellipse stroke="null" id="svg_20" ry="8.09334" rx="19.42401" cy="239.79002" cx="171.78283" fill="#EF4136"/>
   <ellipse stroke="null" id="svg_21" ry="16.51041" rx="10.35947" cy="208.71161" cx="204.47991" fill="#3C2415"/>
   <path stroke="null" id="svg_22" d="m231.34979,245.94096c-5.8272,0 -10.03574,-4.04667 -11.65441,-7.60774c-0.64747,-1.4568 0,-3.23734 1.4568,-3.8848c1.4568,-0.64747 3.23734,0 3.8848,1.4568c0.4856,1.13307 3.56107,6.3128 10.03574,3.3992c0,0 7.44587,-4.20854 14.08241,-6.7984c1.4568,-0.64747 3.23734,0.16187 3.8848,1.61867c0.64747,1.4568 -0.16187,3.23734 -1.61867,3.8848c-6.15094,2.428 -13.43494,6.47467 -13.43494,6.63654c-2.58987,0.9712 -4.69414,1.29493 -6.63654,1.29493z" fill="#3C2415"/>
   <g stroke="null" id="svg_23">
    <path stroke="null" id="svg_24" d="m417.8203,210.16841c-0.32373,-1.29493 84.49445,58.4339 65.87977,89.99792c0,0 -9.06454,24.44188 -59.56697,-3.07547c0,0 6.3128,-35.77255 -6.3128,-86.92245z" fill="#F8AFB6"/>
    <path stroke="null" id="svg_25" d="m464.11419,313.11566c-11.00694,0 -24.92748,-4.53227 -41.43789,-13.59681c-1.13307,-0.64747 -1.78053,-1.9424 -1.4568,-3.07547c0,-0.32373 6.15094,-35.77255 -6.3128,-85.62751l0,0c-0.32373,-1.29493 0.32373,-2.58987 1.4568,-3.3992c1.61867,-0.9712 2.428,-1.29493 17.48161,10.35947c7.284,5.8272 18.29094,14.89174 28.48855,25.41308c23.95628,24.60375 32.04962,44.18962 24.11815,58.11017c-0.64747,1.29493 -3.3992,6.96027 -11.33067,9.87387c-3.23734,1.29493 -6.96027,1.9424 -11.00694,1.9424zm-36.74375,-17.64348c24.76561,13.11121 38.36242,12.94934 45.48456,10.52134c6.3128,-2.26613 8.09334,-6.63654 8.09334,-6.7984c0,-0.16187 0.16187,-0.32373 0.16187,-0.4856c2.58987,-4.3704 2.9136,-9.55014 1.13307,-15.86294c-7.12214,-24.60375 -45.16083,-55.19656 -59.8907,-65.87977c9.06454,40.79042 6.15094,70.41204 5.01787,78.50538z" fill="#3C2415"/>
   </g>
   <g stroke="null" id="svg_26">
    <path stroke="null" id="svg_27" d="m408.10829,346.78395c0,0 -40.95229,117.02966 -85.46565,114.27793c0,0 -25.41308,3.8848 -42.73282,-49.04563c0,0.16187 91.29285,0.80933 128.19847,-65.2323z" fill="#F8AFB6"/>
    <path stroke="null" id="svg_28" d="m321.34771,464.13735c-6.3128,0 -28.65042,-3.56107 -44.35149,-51.1499c-0.32373,-0.9712 -0.16187,-1.9424 0.4856,-2.58987c0.4856,-0.80933 1.29493,-1.29493 2.428,-1.29493c0,0 0,0 0,0c2.58987,0 90.32165,-0.64747 125.44674,-63.7755c0.80933,-1.29493 2.428,-1.9424 3.72294,-1.29493c1.4568,0.64747 2.10427,2.26613 1.61867,3.72294c-1.61867,4.856 -41.27602,116.3822 -86.76058,116.3822c-0.4856,0 -0.9712,0 -1.4568,0c-0.16187,0 -0.4856,0 -1.13307,0zm-37.39122,-49.20749c16.34854,46.13203 37.87682,43.21842 38.20055,43.21842c0.16187,0 0.4856,0 0.64747,0c16.99601,1.13307 36.58189,-17.80534 56.65336,-54.5491c6.7984,-12.62561 12.62561,-25.25121 16.99601,-35.44882c-36.58189,40.46669 -96.31072,46.13203 -112.4974,46.77949z" fill="#3C2415"/>
   </g>
   <path stroke="null" id="svg_29" d="m387.38935,45.87365c7.93147,29.78348 28.32668,51.31176 44.83709,64.42297c8.41707,-16.34854 16.83414,-35.44882 22.82321,-55.35843c2.428,-8.09334 -3.8848,-16.34854 -12.46374,-16.02481c-13.43494,0.64747 -33.50642,2.26613 -55.19656,6.96027z" fill="#3C2415"/>
   <ellipse stroke="null" id="svg_30" ry="8.09334" rx="19.42401" cy="239.79002" cx="328.14611" fill="#EF4136"/>
   <ellipse stroke="null" id="svg_31" ry="16.51041" rx="10.35947" cy="208.71161" cx="295.6109" fill="#3C2415"/>
   <path stroke="null" id="svg_32" d="m268.74101,246.10283c-1.78053,0 -3.8848,-0.4856 -5.98907,-1.4568c-0.32373,-0.16187 -7.60774,-4.20854 -13.75867,-6.63654c-1.4568,-0.64747 -2.26613,-2.26613 -1.61867,-3.8848c0.64747,-1.4568 2.26613,-2.26613 3.8848,-1.61867c6.63654,2.58987 13.92054,6.7984 14.24427,6.96027c6.47467,2.9136 9.38827,-2.9136 9.71201,-3.56107c0.64747,-1.4568 2.428,-2.10427 3.8848,-1.4568c1.4568,0.64747 2.10427,2.428 1.4568,3.8848c-1.78053,3.56107 -5.98907,7.7696 -11.81627,7.7696z" fill="#3C2415"/>
   <g stroke="null" id="svg_33">
    <path stroke="null" id="svg_34" d="m222.28526,63.84086c0,0 -54.87283,20.23334 -35.44882,83.84698c0,0 14.72987,34.15389 51.1499,37.06749c18.29094,1.4568 36.58189,-5.17974 47.91256,-19.58588c6.96027,-8.7408 12.46374,-21.36641 11.16881,-39.33362c-0.64747,-8.90267 -4.20854,-17.48161 -10.68321,-23.79441c-5.3416,-5.17974 -13.43494,-9.38827 -24.76561,-7.7696c0,0 -11.33067,1.13307 -17.96721,10.84507c0,0 -1.13307,-29.62162 39.17176,-41.43789c0,0.16187 -32.04962,-4.3704 -60.53817,0.16187z" fill="#F8AFB6"/>
    <path stroke="null" id="svg_35" d="m243.0042,187.99266c-1.78053,0 -3.56107,0 -5.3416,-0.16187c-37.71495,-3.07547 -53.0923,-37.39122 -53.5779,-38.84802c-20.07148,-65.7179 36.58189,-87.56992 37.06749,-87.73178c0.16187,0 0.32373,-0.16187 0.4856,-0.16187c28.65042,-4.53227 60.05257,-0.16187 61.50937,0c1.4568,0.16187 2.428,1.29493 2.58987,2.75173c0.16187,1.4568 -0.80933,2.58987 -2.10427,3.07547c-24.44188,7.12214 -32.69708,21.04268 -35.61069,29.94535c6.3128,-4.53227 12.94934,-5.17974 13.27307,-5.17974c10.19761,-1.4568 19.58588,1.4568 27.03175,8.57894c6.63654,6.47467 10.84507,15.53921 11.49254,25.57495c1.13307,16.02481 -2.75173,29.94535 -11.65441,41.27602c-10.35947,13.27307 -27.03175,20.88081 -45.16083,20.88081zm-19.90961,-121.2382c-4.3704,1.78053 -51.1499,21.69015 -33.34455,80.12404c0,0 14.40614,32.21148 48.56003,34.96322c18.12908,1.4568 34.96322,-5.50347 45.32269,-18.45281c8.09334,-10.19761 11.49254,-22.66135 10.52134,-37.22935c-0.64747,-8.7408 -4.04667,-16.34854 -9.71201,-21.85201c-6.15094,-5.8272 -13.59681,-8.2552 -22.17575,-6.96027c-0.16187,0 -10.19761,1.13307 -15.86294,9.55014c-0.64747,1.13307 -2.10427,1.61867 -3.23734,1.13307c-1.29493,-0.32373 -2.10427,-1.4568 -2.10427,-2.75173c0,-0.32373 -0.4856,-25.73681 29.13602,-39.81922c-11.97814,-0.80933 -30.26908,-1.29493 -47.10323,1.29493z" fill="#3C2415"/>
   </g>
  </g>
 </g>
</svg>